<svg width="400" height="400" viewBox="0 0 400 400" fill="none" xmlns="http://www.w3.org/2000/svg">
<rect width="400" height="400" fill="#0F0D0E"/>
<path d="M63.5972 55.9584C109.209 44.1781 207.186 53.39 234.201 184.48C183.068 196.577 77.3595 187.81 63.5972 55.9584Z" fill="#FFA30F"/>
<path d="M295.422 52.8674C314.706 75.4548 333.433 133.794 254.071 186.45C233.182 160.812 212.207 98.2034 295.422 52.8674Z" fill="#FFA30F"/>
<path d="M144.326 214.854C163.609 237.441 182.336 295.78 102.974 348.436C82.0853 322.799 61.1108 260.19 144.326 214.854Z" fill="#FFA30F"/>
<path d="M341.371 317.661C297.325 334.367 198.928 335.944 157.714 208.603C207.215 190.977 313.247 188.111 341.371 317.661Z" fill="#FFA30F"/>
</svg>
